/* XPM */
static char *b599cf79a37b4de191de08684db966d5qGKF2YMPaIXI75rT[] = {
/* columns rows colors chars-per-pixel */
"16 16 12 1 ",
"  c None",
". c #412320",
"X c #59302C",
"o c #5C322D",
"O c #6D3B36",
"+ c #434F65",
"@ c #9A544C",
"# c #6F7F9F",
"$ c gray55",
"% c #8895AF",
"& c gray68",
"* c #A6B0C4",
/* pixels */
"     %%%%%%     ",
"     %%%%%%     ",
"%%%%+%%%%%%+%%%%",
"%%%%+******+%%%%",
"%%%%+######+%%%%",
"****+######+****",
"####+######+####",
"####+######+####",
"####X.XXXX.X####",
"X.XXX.XXXX.XXX.X",
"X.OOOoOOOOoOOO.X",
"OoOOOoOOOOoOOOoO",
"&oOOOoOOOOoOOOoO",
"&oOOOoOOOOoOOOoO",
"OoOOOoOOOOoOOOoO",
"OoOOOoOOOOoOOOoO",
"OoOOOoO&&&oOOOoO",
};
